<?xml version="1.0" ?><!DOCTYPE svg  PUBLIC '-//W3C//DTD SVG 1.1//EN'  'http://www.w3.org/Graphics/SVG/1.1/DTD/svg11.dtd'><svg height="16px" id="Layer_1" style="enable-background:new 0 0 16 16;" version="1.1" viewBox="0 0 16 16" width="16px" xml:space="preserve" xmlns="http://www.w3.org/2000/svg" xmlns:xlink="http://www.w3.org/1999/xlink"><path d="M9,6H1C0.45,6,0,6.45,0,7v8c0,0.55,0.45,1,1,1h8c0.55,0,1-0.45,1-1V7C10,6.45,9.55,6,9,6z M15,0H7C6.45,0,6,0.45,6,1v3h3  c1.654,0,3,1.346,3,3v3h3c0.55,0,1-0.45,1-1V1C16,0.45,15.55,0,15,0z"/></svg>